<svg width="90" height="90" viewBox="0 0 90 90" fill="none" xmlns="http://www.w3.org/2000/svg">
<path d="M47.6543 82.9512C67.8569 82.9512 84.2344 66.5737 84.2344 46.3711C84.2344 26.1685 67.8569 9.79102 47.6543 9.79102C27.4517 9.79102 11.0742 26.1685 11.0742 46.3711C11.0742 66.5737 27.4517 82.9512 47.6543 82.9512Z" stroke="black" stroke-width="2" stroke-miterlimit="10"/>
<path d="M61.2598 29.6014C55.9512 29.4081 52.3476 32.4491 50.4492 38.7069C51.3457 38.3026 52.3125 38.0741 53.2793 38.0741C55.2305 38.0741 56.0918 39.1815 55.8633 41.3964C55.7402 42.7323 54.8789 44.6835 53.2969 47.2499C51.6973 49.8163 50.4844 51.0995 49.6758 51.0995C47.25 51.0995 45.791 39.4628 45.2812 36.2811C44.5957 31.869 42.75 29.7948 39.7793 30.0936C37.0371 30.3573 32.2559 35.2792 28.5117 38.619L30.3223 40.9745C32.0449 39.7616 33.0469 39.1464 33.3281 39.1464C36.3164 39.1464 37.7578 49.3241 40.0781 56.8827C41.6426 61.0663 43.5059 63.1405 45.7559 63.1405C49.3769 63.1405 53.7891 59.7128 59.0098 52.8573C64.0547 46.3007 66.6562 41.1327 66.832 37.3534L66.8496 37.3358C67.0605 32.2909 65.2148 29.6893 61.2598 29.6014Z" stroke="black" stroke-width="2" stroke-miterlimit="10"/>
</svg>
