<svg width="90" height="90" viewBox="0 0 90 90" fill="none" xmlns="http://www.w3.org/2000/svg">
<path d="M37.9336 39.2344C39.832 38.8477 41.6953 38.3555 43.541 37.7754C41.2207 33.4687 38.2676 29.5488 34.752 26.1562C29.6543 28.8984 25.7871 33.7676 24.5391 39.5859C28.2832 40.3594 32.9062 40.2539 37.9336 39.2344Z" stroke="black" stroke-width="2" stroke-miterlimit="10"/>
<path d="M57.0059 28.4238L56.6719 29.7246C56.1445 31.7988 51.7676 34.7695 46.0195 36.9141L45.7559 37.002C43.4531 32.625 40.5176 28.6348 37.0371 25.1191C39.3223 24.2051 41.748 23.7129 44.209 23.6953C48.5684 23.7305 52.7871 25.1719 56.25 27.8086C56.5137 27.9844 56.7773 28.1953 57.0059 28.4238Z" stroke="black" stroke-width="2" stroke-miterlimit="10"/>
<path d="M46.6875 44.7891C46.0723 43.1191 45.3867 41.4844 44.6309 39.9023C42.5918 40.5879 40.5176 41.1328 38.4082 41.5547C35.5781 42.1348 32.7129 42.4336 29.8301 42.4512C27.9316 42.4688 26.0332 42.293 24.1699 41.959C24.1172 42.5742 24.1875 43.1895 24.1875 43.8223C24.1875 49.7813 26.8418 55.4414 31.4297 59.2383C31.4473 59.0977 31.4824 58.957 31.5 58.8164C32.3789 53.3848 38.6367 47.6543 46.6875 44.7891Z" stroke="black" stroke-width="2" stroke-miterlimit="10"/>
<path d="M47.4609 47.0039C49.0957 52.207 49.9746 57.6211 50.0625 63.0703C44.6133 64.7578 38.6895 63.9844 33.8379 60.9609C33.7148 60.3809 33.7148 59.7832 33.8203 59.1855C34.541 54.7383 40.3945 49.5703 47.4609 47.0039Z" stroke="black" stroke-width="2" stroke-miterlimit="10"/>
<path d="M64.1074 46.6701C63.123 53.5783 58.5352 59.3439 52.3652 62.1037C52.207 56.7248 51.293 51.4162 49.6758 46.2834C54.9492 44.8244 59.959 45.0002 64.1074 46.6701Z" stroke="black" stroke-width="2" stroke-miterlimit="10"/>
<path d="M64.3184 43.8223V44.2441C59.8184 42.5742 54.4746 42.5039 48.9199 44.0859C48.3047 42.3809 47.6016 40.7461 46.8457 39.1289C50.7129 37.6699 57.9551 34.3301 58.957 30.2871C62.3848 33.9609 64.3008 38.7949 64.3184 43.8223Z" stroke="black" stroke-width="2" stroke-miterlimit="10"/>
<path d="M44.2266 80.4023C64.4292 80.4023 80.8066 64.0249 80.8066 43.8223C80.8066 23.6196 64.4292 7.24219 44.2266 7.24219C24.0239 7.24219 7.64648 23.6196 7.64648 43.8223C7.64648 64.0249 24.0239 80.4023 44.2266 80.4023Z" stroke="black" stroke-width="2" stroke-miterlimit="10"/>
</svg>
