<svg width="60" height="60" viewBox="0 0 60 60" fill="none" xmlns="http://www.w3.org/2000/svg">
<path d="M44.6215 41.6585H15.3785C15.3023 41.6585 15.2269 41.6434 15.1566 41.6141C15.0863 41.5848 15.0225 41.5419 14.9689 41.4879C14.9152 41.4338 14.8728 41.3696 14.8441 41.2991C14.8154 41.2286 14.8009 41.1531 14.8015 41.0769V30.8492C14.8015 30.6962 14.8623 30.5495 14.9705 30.4413C15.0787 30.3331 15.2254 30.2723 15.3785 30.2723H22.8277C22.9807 30.2723 23.1274 30.3331 23.2356 30.4413C23.3438 30.5495 23.4046 30.6962 23.4046 30.8492C23.4046 31.0022 23.3438 31.149 23.2356 31.2572C23.1274 31.3654 22.9807 31.4262 22.8277 31.4262H15.9554V40.5046H44.0446V11.8892H15.9554V20.1969C15.9554 20.3499 15.8946 20.4967 15.7864 20.6049C15.6782 20.7131 15.5315 20.7738 15.3785 20.7738C15.2254 20.7738 15.0787 20.7131 14.9705 20.6049C14.8623 20.4967 14.8015 20.3499 14.8015 20.1969V11.3031C14.8009 11.2271 14.8154 11.1518 14.8442 11.0816C14.873 11.0113 14.9154 10.9475 14.9691 10.8938C15.0228 10.8401 15.0867 10.7976 15.157 10.7688C15.2272 10.74 15.3025 10.7255 15.3785 10.7262H44.6215C44.6975 10.7255 44.7728 10.74 44.843 10.7688C44.9133 10.7976 44.9772 10.8401 45.0308 10.8938C45.0845 10.9475 45.127 11.0113 45.1558 11.0816C45.1846 11.1518 45.1991 11.2271 45.1985 11.3031V41.0769C45.1991 41.1531 45.1846 41.2286 45.1559 41.2991C45.1272 41.3696 45.0848 41.4338 45.0311 41.4879C44.9775 41.5419 44.9137 41.5848 44.8434 41.6141C44.7731 41.6434 44.6977 41.6585 44.6215 41.6585Z" fill="black"/>
<path d="M30 49.2739C29.9241 49.2745 29.8488 49.26 29.7785 49.2312C29.7082 49.2024 29.6444 49.16 29.5907 49.1063C29.537 49.0526 29.4945 48.9887 29.4657 48.9184C29.437 48.8482 29.4225 48.7729 29.4231 48.6969V18.7985C29.4231 18.6455 29.4839 18.4987 29.5921 18.3905C29.7003 18.2823 29.847 18.2216 30 18.2216C30.153 18.2216 30.2998 18.2823 30.408 18.3905C30.5161 18.4987 30.5769 18.6455 30.5769 18.7985V48.6969C30.5775 48.7729 30.563 48.8482 30.5343 48.9184C30.5055 48.9887 30.463 49.0526 30.4093 49.1063C30.3556 49.16 30.2918 49.2024 30.2215 49.2312C30.1512 49.26 30.0759 49.2745 30 49.2739Z" fill="black"/>
</svg>
