<svg width="60" height="60" viewBox="0 0 60 60" fill="none" xmlns="http://www.w3.org/2000/svg">
<path d="M18 42.8677C14.5873 42.8677 11.3143 41.512 8.90117 39.0988C6.48801 36.6857 5.13231 33.4127 5.13231 30C5.13231 26.5873 6.48801 23.3143 8.90117 20.9012C11.3143 18.488 14.5873 17.1323 18 17.1323C24.9231 17.1323 38.7692 29.0585 39.3415 29.5662C39.404 29.6199 39.4541 29.6865 39.4885 29.7613C39.5228 29.8362 39.5406 29.9176 39.5406 30C39.5406 30.0824 39.5228 30.1638 39.4885 30.2387C39.4541 30.3136 39.404 30.3801 39.3415 30.4339C38.7692 30.9231 24.9231 42.8677 18 42.8677ZM18 18.2862C14.8933 18.2862 11.9138 19.5203 9.71706 21.7171C7.52029 23.9138 6.28615 26.8933 6.28615 30C6.28615 33.1067 7.52029 36.0862 9.71706 38.283C11.9138 40.4797 14.8933 41.7139 18 41.7139C23.7831 41.7139 35.4831 32.1739 38.0723 30C35.4738 27.8262 23.7738 18.2862 18 18.2862Z" fill="black"/>
<path d="M42 42.8677C35.0769 42.8677 21.2308 30.9415 20.6585 30.4338C20.5958 30.3859 20.5436 30.3256 20.5051 30.2567C20.4667 30.1879 20.4428 30.1118 20.4349 30.0333C20.427 29.9548 20.4352 29.8755 20.4592 29.8004C20.4831 29.7252 20.5223 29.6557 20.5741 29.5963C20.626 29.5368 20.6895 29.4886 20.7607 29.4547C20.832 29.4208 20.9094 29.4018 20.9882 29.399C21.0671 29.3961 21.1457 29.4095 21.2191 29.4383C21.2926 29.467 21.3594 29.5105 21.4154 29.5661C21.5538 29.6861 35.5062 41.7138 42 41.7138C45.1067 41.7138 48.0862 40.4797 50.2829 38.2829C52.4797 36.0861 53.7139 33.1067 53.7139 30C53.7139 26.8933 52.4797 23.9138 50.2829 21.717C48.0862 19.5203 45.1067 18.2861 42 18.2861C39.5123 18.2861 35.4739 20.1323 30.3139 23.6307C30.1898 23.7099 30.04 23.7383 29.8957 23.7099C29.7513 23.6815 29.6233 23.5986 29.5385 23.4784C29.4956 23.4158 29.4655 23.3452 29.45 23.2709C29.4344 23.1966 29.4337 23.1199 29.4479 23.0453C29.462 22.9707 29.4908 22.8996 29.5324 22.8361C29.5741 22.7726 29.6279 22.718 29.6908 22.6754C35.1185 18.9831 39.2677 17.1369 42.0231 17.1369C43.7129 17.1369 45.3862 17.4697 46.9473 18.1164C48.5085 18.7631 49.927 19.7109 51.1219 20.9058C52.3168 22.1006 53.2646 23.5192 53.9113 25.0803C54.5579 26.6415 54.8908 28.3148 54.8908 30.0046C54.8908 31.6944 54.5579 33.3677 53.9113 34.9288C53.2646 36.49 52.3168 37.9086 51.1219 39.1034C49.927 40.2983 48.5085 41.2461 46.9473 41.8928C45.3862 42.5395 43.7129 42.8723 42.0231 42.8723L42 42.8677Z" fill="black"/>
</svg>
