<svg width="60" height="60" viewBox="0 0 60 60" fill="none" xmlns="http://www.w3.org/2000/svg">
<path d="M47.2431 40.9707H12.7569C12.6039 40.9707 12.4572 40.91 12.349 40.8018C12.2408 40.6936 12.18 40.5468 12.18 40.3938C12.18 40.2408 12.2408 40.0941 12.349 39.9859C12.4572 39.8777 12.6039 39.8169 12.7569 39.8169H46.7077L48.2031 20.7692L37.3846 27.0415C37.2524 27.1186 37.095 27.1401 36.947 27.1011C36.799 27.0622 36.6725 26.966 36.5954 26.8338C36.5183 26.7016 36.4968 26.5442 36.5358 26.3962C36.5747 26.2482 36.6709 26.1217 36.8031 26.0446L48.5954 19.2092C48.6852 19.1551 48.7882 19.1265 48.8931 19.1265C48.998 19.1265 49.1009 19.1551 49.1908 19.2092C49.2801 19.2643 49.3524 19.3431 49.3996 19.4367C49.4469 19.5304 49.4673 19.6354 49.4585 19.74L47.8431 40.4261C47.8347 40.5775 47.7671 40.7196 47.6548 40.8215C47.5425 40.9234 47.3946 40.977 47.2431 40.9707Z" fill="black"/>
<path d="M47.2431 40.9707H12.7569C12.6116 40.9712 12.4714 40.9168 12.3645 40.8184C12.2575 40.72 12.1916 40.5849 12.18 40.44L10.5646 19.7538C10.5558 19.6493 10.5762 19.5443 10.6234 19.4506C10.6707 19.3569 10.743 19.2781 10.8323 19.2231C10.9222 19.1689 11.0251 19.1403 11.13 19.1403C11.2349 19.1403 11.3378 19.1689 11.4277 19.2231L33.9277 32.2477C34.0052 32.2782 34.0753 32.3251 34.1329 32.3853C34.1906 32.4454 34.2346 32.5174 34.2618 32.5962C34.289 32.6749 34.2988 32.7587 34.2906 32.8416C34.2823 32.9245 34.2562 33.0047 34.214 33.0765C34.1719 33.1484 34.1146 33.2103 34.0462 33.2579C33.9778 33.3056 33.9 33.3378 33.8179 33.3525C33.7359 33.3671 33.6516 33.3638 33.571 33.3428C33.4904 33.3218 33.4152 33.2836 33.3508 33.2307L11.7969 20.7692L13.2923 39.8169H47.2431C47.3961 39.8169 47.5428 39.8777 47.651 39.9859C47.7592 40.0941 47.82 40.2408 47.82 40.3938C47.82 40.5468 47.7592 40.6936 47.651 40.8018C47.5428 40.91 47.3961 40.9707 47.2431 40.9707Z" fill="black"/>
<path d="M36.9231 27.12C36.8473 27.1205 36.7723 27.1057 36.7025 27.0763C36.6326 27.047 36.5695 27.0037 36.5169 26.9492L30 20.4184L23.4692 26.9492C23.4156 27.0029 23.352 27.0456 23.2819 27.0746C23.2118 27.1037 23.1367 27.1187 23.0608 27.1187C22.9849 27.1187 22.9097 27.1037 22.8397 27.0746C22.7696 27.0456 22.7059 27.0029 22.6523 26.9492C22.546 26.8398 22.4866 26.6933 22.4866 26.5407C22.4866 26.3882 22.546 26.2417 22.6523 26.1323L29.5754 19.2092C29.6286 19.1556 29.6919 19.1131 29.7616 19.0841C29.8313 19.055 29.906 19.0401 29.9815 19.0401C30.057 19.0401 30.1318 19.055 30.2015 19.0841C30.2712 19.1131 30.3345 19.1556 30.3877 19.2092L37.3108 26.1323C37.3645 26.1859 37.4071 26.2495 37.4362 26.3196C37.4653 26.3897 37.4803 26.4649 37.4803 26.5407C37.4803 26.6166 37.4653 26.6918 37.4362 26.7619C37.4071 26.8319 37.3645 26.8956 37.3108 26.9492C37.209 27.0548 37.0697 27.1162 36.9231 27.12Z" fill="black"/>
</svg>
