<svg width="60" height="60" viewBox="0 0 60 60" fill="none" xmlns="http://www.w3.org/2000/svg">
<path d="M30.0738 46.9939C26.9696 46.9925 23.9244 46.145 21.2657 44.5425C18.6071 42.9399 16.4356 40.643 14.9846 37.8987C13.5337 35.1544 12.8582 32.0665 13.0309 28.9671C13.2036 25.8676 14.2178 22.8739 15.9646 20.3077C16.0076 20.2453 16.0625 20.1919 16.1262 20.1507C16.1898 20.1095 16.261 20.0812 16.3355 20.0675C16.4101 20.0538 16.4867 20.0549 16.5608 20.0708C16.6349 20.0867 16.7052 20.117 16.7677 20.16C16.8301 20.203 16.8834 20.258 16.9246 20.3216C16.9658 20.3852 16.9941 20.4564 17.0078 20.531C17.0215 20.6055 17.0204 20.6821 17.0046 20.7562C16.9887 20.8304 16.9584 20.9007 16.9154 20.9631C14.9456 23.8167 13.9649 27.237 14.1231 30.7008C14.2813 34.1647 15.5697 37.4813 17.7913 40.1435C20.013 42.8058 23.0455 44.667 26.425 45.4426C29.8046 46.2182 33.3452 45.8654 36.5053 44.4382C39.6654 43.011 42.271 40.588 43.9237 37.5398C45.5763 34.4915 46.185 30.9859 45.6566 27.5589C45.1282 24.132 43.4919 20.9725 40.9978 18.5636C38.5038 16.1547 35.2893 14.6291 31.8461 14.22V31.5185C31.8461 31.6715 31.7853 31.8182 31.6771 31.9264C31.569 32.0346 31.4222 32.0954 31.2692 32.0954H20.3077C20.1522 32.0954 20.0031 32.0336 19.8932 31.9237C19.7833 31.8138 19.7215 31.6647 19.7215 31.5092C19.7215 31.3538 19.7833 31.2047 19.8932 31.0948C20.0031 30.9848 20.1522 30.9231 20.3077 30.9231H30.6877V13.5831C30.688 13.5031 30.705 13.424 30.7376 13.3509C30.7702 13.2778 30.8176 13.2122 30.8769 13.1585C30.9339 13.1032 31.0022 13.061 31.0771 13.0347C31.152 13.0084 31.2317 12.9987 31.3107 13.0062C34.5529 13.2686 37.6528 14.4515 40.2455 16.4158C42.8383 18.38 44.8161 21.044 45.9462 24.0941C47.0764 27.1443 47.3119 30.4538 46.6251 33.6333C45.9383 36.8127 44.3576 39.7299 42.0692 42.0415C40.4947 43.6166 38.6243 44.865 36.5658 45.7149C34.5072 46.5648 32.3009 46.9994 30.0738 46.9939Z" fill="black"/>
</svg>
