<svg width="28" height="28" viewBox="0 0 28 28" fill="none" xmlns="http://www.w3.org/2000/svg">
<path d="M1.93848 2.88184C1.98647 2.74319 2.08022 2.625 2.20431 2.54671C2.3284 2.46842 2.47544 2.43469 2.62125 2.45108C3.57109 2.45108 4.52094 2.45108 5.47078 2.45108C5.90155 2.45108 6.05878 2.58246 6.14063 2.98954C6.3194 3.85108 6.48955 4.71261 6.67048 5.60215H6.96555C13.0997 5.60215 19.2331 5.60215 25.3659 5.60215C25.5054 5.59587 25.6448 5.61861 25.7751 5.66892C25.8833 5.71586 25.9714 5.79956 26.0238 5.90519C26.0762 6.01083 26.0896 6.13161 26.0616 6.24615C25.8979 7.54708 25.7335 8.84728 25.5683 10.1468C25.4563 11.0342 25.3529 11.9215 25.228 12.8089C25.0385 14.1314 23.884 15.0532 22.5056 15.0489C17.9825 15.0317 13.4443 15.0489 8.91478 15.0489H8.5594C8.63694 15.4366 8.69078 15.8071 8.78771 16.1646C9.13448 17.4569 10.1188 18.1978 11.4671 18.1978H23.2228C23.3399 18.1949 23.4569 18.205 23.5717 18.228C23.6879 18.2542 23.7907 18.3217 23.8608 18.418C23.9309 18.5143 23.9637 18.6327 23.9529 18.7514C23.949 18.8691 23.9036 18.9816 23.8248 19.069C23.746 19.1565 23.6388 19.2134 23.5222 19.2295C23.4292 19.2403 23.3357 19.2446 23.2422 19.2425H11.5016C9.49632 19.2425 8.07478 18.0406 7.68494 16.0677C6.86935 11.9495 6.04873 7.83497 5.22309 3.724C5.20815 3.65129 5.18946 3.5794 5.16709 3.50861H4.92371C4.16125 3.50861 3.39878 3.50861 2.63848 3.50861C2.49504 3.52831 2.34909 3.50069 2.22277 3.42995C2.09645 3.35921 1.99664 3.2492 1.93848 3.11661V2.88184ZM24.9416 6.67692H6.8794C7.37048 9.128 7.85725 11.5618 8.34617 14H22.4926C23.4985 14 24.1102 13.4249 24.2157 12.4255C24.3859 10.9674 24.5776 9.51354 24.7606 8.05754C24.8274 7.60308 24.8834 7.14431 24.9416 6.67692Z" fill="#E2B013"/>
<path d="M8.23634 22.9298C8.23464 22.4113 8.38676 21.904 8.67346 21.4719C8.96016 21.0399 9.36856 20.7025 9.847 20.5026C10.3254 20.3027 10.8524 20.2492 11.3613 20.3489C11.8701 20.4485 12.338 20.6968 12.7057 21.0624C13.0734 21.428 13.3244 21.8945 13.427 22.4027C13.5296 22.911 13.4791 23.4383 13.2819 23.9179C13.0848 24.3974 12.7498 24.8078 12.3194 25.097C11.889 25.3861 11.3826 25.5412 10.864 25.5425C10.5198 25.5442 10.1785 25.4779 9.85993 25.3474C9.54134 25.2168 9.25166 25.0247 9.00752 24.782C8.76337 24.5392 8.56957 24.2506 8.43723 23.9328C8.30489 23.615 8.23662 23.2741 8.23634 22.9298ZM10.849 21.3489C10.5386 21.3498 10.2354 21.4426 9.9778 21.6156C9.72016 21.7887 9.51958 22.0342 9.4014 22.3212C9.28322 22.6082 9.25274 22.9237 9.31381 23.228C9.37488 23.5323 9.52476 23.8117 9.74452 24.0309C9.96428 24.25 10.2441 24.3991 10.5485 24.4594C10.853 24.5196 11.1685 24.4883 11.4551 24.3693C11.7418 24.2503 11.9868 24.0491 12.1591 23.791C12.3314 23.5328 12.4234 23.2294 12.4234 22.9191C12.4217 22.5024 12.2551 22.1034 11.9601 21.8092C11.6651 21.515 11.2656 21.3495 10.849 21.3489Z" fill="#E2B013"/>
<path d="M21.3338 20.3C21.8522 20.2987 22.3594 20.4512 22.7912 20.7382C23.2229 21.0251 23.5599 21.4337 23.7595 21.9122C23.959 22.3906 24.0122 22.9175 23.9124 23.4263C23.8125 23.935 23.564 24.4026 23.1983 24.7701C22.8326 25.1376 22.3662 25.3884 21.858 25.4908C21.3497 25.5932 20.8226 25.5426 20.3431 25.3454C19.8637 25.1482 19.4535 24.8132 19.1644 24.3829C18.8753 23.9525 18.7203 23.4461 18.719 22.9277C18.7173 22.5832 18.7837 22.2418 18.9143 21.9231C19.045 21.6044 19.2373 21.3146 19.4803 21.0704C19.7233 20.8262 20.0121 20.6325 20.3302 20.5003C20.6483 20.3681 20.9893 20.3 21.3338 20.3ZM22.9104 22.9169C22.91 22.6066 22.8176 22.3033 22.6449 22.0454C22.4722 21.7875 22.2269 21.5866 21.9401 21.468C21.6533 21.3495 21.3378 21.3185 21.0334 21.3792C20.729 21.4399 20.4495 21.5894 20.23 21.8088C20.0105 22.0283 19.861 22.3078 19.8004 22.6122C19.7397 22.9166 19.7706 23.2321 19.8892 23.519C20.0078 23.8058 20.2087 24.051 20.4666 24.2237C20.7245 24.3964 21.0277 24.4888 21.3381 24.4892C21.7551 24.4892 22.155 24.3236 22.4499 24.0287C22.7448 23.7338 22.9104 23.3339 22.9104 22.9169Z" fill="#E2B013"/>
</svg>
