<svg width="28" height="28" viewBox="0 0 28 28" fill="none" xmlns="http://www.w3.org/2000/svg">
<path d="M20.5176 18.8289C21.931 16.9884 22.5912 14.6791 22.3644 12.3697C22.1376 10.0602 21.0407 7.92351 19.2963 6.39312C17.5519 4.86273 15.2906 4.05327 12.9712 4.12898C10.6519 4.20469 8.4482 5.1599 6.8073 6.8008C5.16641 8.4417 4.2112 10.6454 4.13548 12.9647C4.05977 15.2841 4.86923 17.5454 6.39962 19.2898C7.93002 21.0342 10.0667 22.1311 12.3762 22.3579C14.6857 22.5847 16.9949 21.9244 18.8354 20.5111L22.0317 23.7418C22.112 23.8189 22.2188 23.8619 22.33 23.8619C22.4412 23.8619 22.5481 23.8189 22.6284 23.7418L23.7397 22.6305C23.8174 22.5501 23.8608 22.4428 23.8608 22.3311C23.8608 22.2194 23.8174 22.112 23.7397 22.0317L20.5176 18.8289ZM13.341 21.0258C12.1796 21.0251 11.0332 20.7628 9.98704 20.2585C8.94083 19.7542 8.02158 19.0209 7.29747 18.1128C6.57336 17.2048 6.06298 16.1454 5.80418 15.0132C5.54538 13.881 5.54481 12.7051 5.80251 11.5726C6.36681 8.96 9.00097 6.32585 11.6179 5.75723C12.7503 5.49954 13.9263 5.50011 15.0585 5.75891C16.1907 6.01771 17.2501 6.52809 18.1581 7.2522C19.0661 7.9763 19.7995 8.89556 20.3038 9.94177C20.8081 10.988 21.0703 12.1343 21.0711 13.2957C21.0717 14.311 20.8721 15.3164 20.4839 16.2546C20.0956 17.1927 19.5262 18.0451 18.8083 18.763C18.0904 19.4809 17.238 20.0503 16.2998 20.4386C15.3617 20.8269 14.3563 21.0264 13.341 21.0258Z" fill="#E2B013"/>
<path d="M20.5563 18.8268C21.9683 16.9776 22.6247 14.6609 22.3926 12.3459C22.1605 10.0309 21.0571 7.89059 19.3061 6.35859C17.555 4.82659 15.2872 4.01738 12.9618 4.09487C10.6365 4.17236 8.42752 5.13075 6.78234 6.77593C5.13717 8.42111 4.17877 10.6301 4.10128 12.9554C4.02379 15.2808 4.833 17.5486 6.365 19.2997C7.897 21.0507 10.0373 22.1541 12.3523 22.3862C14.6673 22.6183 16.984 21.9619 18.8332 20.5498L22.0316 23.7806C22.1119 23.8576 22.2188 23.9006 22.33 23.9006C22.4412 23.9006 22.548 23.8576 22.6283 23.7806L23.7827 22.6262C23.8597 22.5459 23.9027 22.439 23.9027 22.3278C23.9027 22.2166 23.8597 22.1098 23.7827 22.0295L20.5563 18.8268ZM7.71934 20.4852C6.29064 19.3873 5.2196 17.8903 4.64164 16.1836C4.06369 14.477 4.00478 12.6372 4.47236 10.8971C4.93994 9.15696 5.91301 7.59454 7.26854 6.4074C8.62406 5.22027 10.3012 4.46174 12.0878 4.22772C13.8744 3.9937 15.6903 4.29471 17.3058 5.09268C18.9213 5.89065 20.264 7.14975 21.164 8.71076C22.0639 10.2718 22.4808 12.0646 22.3619 13.8625C22.243 15.6605 21.5937 17.3828 20.496 18.8117L20.4809 18.8311L23.7116 22.0252C23.7893 22.1056 23.8327 22.2129 23.8327 22.3246C23.8327 22.4363 23.7893 22.5437 23.7116 22.624L22.6347 23.7009C22.5545 23.7779 22.4476 23.8209 22.3364 23.8209C22.2252 23.8209 22.1183 23.7779 22.0381 23.7009L18.844 20.4702L18.8246 20.4852C17.2314 21.7071 15.2797 22.3694 13.272 22.3694C11.2642 22.3694 9.31247 21.7071 7.71934 20.4852Z" fill="#E2B013"/>
</svg>
